<svg width="40" height="40" viewBox="0 0 40 40" fill="none" xmlns="http://www.w3.org/2000/svg">
<path d="M14.4716 5H25.5284C25.9704 5 26.3943 5.1756 26.7069 5.48816L34.5118 13.2931C34.8244 13.6056 35 14.0296 35 14.4716V25.5284C35 25.9704 34.8244 26.3943 34.5118 26.7069L26.7069 34.5118C26.3943 34.8244 25.9704 35 25.5284 35H14.4716C14.0296 35 13.6056 34.8244 13.2931 34.5118L5.48815 26.7069C5.17559 26.3943 5 25.9704 5 25.5284V14.4716C5 14.0296 5.17559 13.6057 5.48816 13.2931L13.2931 5.48816C13.6057 5.17559 14.0296 5 14.4716 5Z" stroke="white" stroke-width="4" stroke-miterlimit="10" stroke-linecap="round" stroke-linejoin="round"/>
<path d="M26.4142 18.0807C27.1953 17.2997 27.1953 16.0333 26.4142 15.2523C25.6332 14.4712 24.3668 14.4712 23.5858 15.2523L26.4142 18.0807ZM18.3333 23.3332L16.9191 24.7474C17.7002 25.5284 18.9665 25.5284 19.7475 24.7474L18.3333 23.3332ZM16.4142 18.5856C15.6332 17.8046 14.3668 17.8046 13.5858 18.5856C12.8047 19.3667 12.8047 20.633 13.5858 21.4141L16.4142 18.5856ZM23.5858 15.2523L16.9191 21.919L19.7475 24.7474L26.4142 18.0807L23.5858 15.2523ZM19.7475 21.919L16.4142 18.5856L13.5858 21.4141L16.9191 24.7474L19.7475 21.919Z" fill="white"/>
</svg>
