<svg width="40" height="40" viewBox="0 0 40 40" fill="none" xmlns="http://www.w3.org/2000/svg">
<path d="M15.8381 7.09536L13.9812 7.83815V7.83815L15.8381 7.09536ZM17.5953 11.4881L19.4522 10.7454L19.4522 10.7454L17.5953 11.4881ZM17.0611 14.8601L18.5975 16.1404H18.5975L17.0611 14.8601ZM16.1154 15.9948L17.6519 17.2752H17.6519L16.1154 15.9948ZM16.3191 20.4858L14.9049 21.9L16.3191 20.4858ZM19.5142 23.6809L20.9284 22.2667V22.2667L19.5142 23.6809ZM24.0052 23.8846L22.7248 22.3481H22.7248L24.0052 23.8846ZM25.14 22.9389L26.4203 24.4754L26.4203 24.4754L25.14 22.9389ZM28.5119 22.4047L27.7691 24.2617L28.5119 22.4047ZM32.9046 24.1619L33.6474 22.3049L32.9046 24.1619ZM8.15789 7H12.7432V3H8.15789V7ZM13.9812 7.83815L15.7383 12.2309L19.4522 10.7454L17.6951 6.35258L13.9812 7.83815ZM15.5246 13.5797L14.579 14.7145L17.6519 17.2752L18.5975 16.1404L15.5246 13.5797ZM14.9049 21.9L18.1 25.0951L20.9284 22.2667L17.7333 19.0716L14.9049 21.9ZM25.2855 25.421L26.4203 24.4754L23.8596 21.4025L22.7248 22.3481L25.2855 25.421ZM27.7691 24.2617L32.1619 26.0188L33.6474 22.3049L29.2546 20.5478L27.7691 24.2617ZM33 27.2568V31.8421H37V27.2568H33ZM31.8421 33C18.1222 33 7 21.8778 7 8.1579H3C3 24.0869 15.9131 37 31.8421 37V33ZM33 31.8421C33 32.4816 32.4816 33 31.8421 33V37C34.6907 37 37 34.6907 37 31.8421H33ZM32.1619 26.0188C32.6681 26.2213 33 26.7116 33 27.2568H37C37 25.076 35.6723 23.1148 33.6474 22.3049L32.1619 26.0188ZM26.4203 24.4754C26.7965 24.1618 27.3144 24.0798 27.7691 24.2617L29.2546 20.5478C27.4358 19.8203 25.3645 20.1484 23.8596 21.4025L26.4203 24.4754ZM18.1 25.0951C20.0505 27.0456 23.1665 27.1869 25.2855 25.421L22.7248 22.3481C22.195 22.7896 21.416 22.7543 20.9284 22.2667L18.1 25.0951ZM14.579 14.7145C12.8131 16.8335 12.9544 19.9495 14.9049 21.9L17.7333 19.0716C17.2457 18.584 17.2104 17.805 17.6519 17.2752L14.579 14.7145ZM15.7383 12.2309C15.9202 12.6856 15.8381 13.2035 15.5246 13.5797L18.5975 16.1404C19.8516 14.6355 20.1797 12.5642 19.4522 10.7454L15.7383 12.2309ZM12.7432 7C13.2884 7 13.7787 7.33193 13.9812 7.83815L17.6951 6.35258C16.8852 4.32774 14.924 3 12.7432 3V7ZM8.15789 3C5.30927 3 3 5.30927 3 8.1579H7C7 7.51841 7.51841 7 8.15789 7V3Z" fill="white"/>
</svg>
