<svg width="40" height="40" viewBox="0 0 40 40" fill="none" xmlns="http://www.w3.org/2000/svg">
<path d="M20.4837 34.8281L21.1938 36.6977L21.1938 36.6977L20.4837 34.8281ZM19.5164 34.8281L18.8063 36.6977L18.8063 36.6977L19.5164 34.8281ZM8.33335 7H31.6667V3H8.33335V7ZM31.3334 6.66667V16.9414H35.3334V6.66667H31.3334ZM8.66669 16.9414V6.66667H4.66669V16.9414H8.66669ZM31.3334 16.9414C31.3334 27.8684 22.0703 32.0861 19.7736 32.9584L21.1938 36.6977C23.6826 35.7525 35.3334 30.6195 35.3334 16.9414H31.3334ZM4.66669 16.9414C4.66669 30.6195 16.3175 35.7525 18.8063 36.6977L20.2265 32.9584C17.9298 32.0861 8.66669 27.8684 8.66669 16.9414H4.66669ZM19.7736 32.9584C19.8349 32.9351 19.9126 32.9184 20 32.9184C20.0875 32.9184 20.1651 32.9351 20.2265 32.9584L18.8063 36.6977C19.5808 36.9919 20.4193 36.9919 21.1938 36.6977L19.7736 32.9584ZM31.6667 7C31.4826 7 31.3334 6.85076 31.3334 6.66667H35.3334C35.3334 4.64162 33.6917 3 31.6667 3V7ZM8.33335 3C6.30831 3 4.66669 4.64162 4.66669 6.66667H8.66669C8.66669 6.85076 8.51745 7 8.33335 7V3Z" fill="white"/>
<path d="M26.4142 16.4142C27.1953 15.6332 27.1953 14.3668 26.4142 13.5858C25.6332 12.8047 24.3668 12.8047 23.5858 13.5858L26.4142 16.4142ZM18.3333 21.6667L16.9191 23.0809C17.2942 23.456 17.8029 23.6667 18.3333 23.6667C18.8638 23.6667 19.3725 23.456 19.7475 23.0809L18.3333 21.6667ZM16.4142 16.9191C15.6332 16.1381 14.3668 16.1381 13.5858 16.9191C12.8047 17.7002 12.8047 18.9665 13.5858 19.7475L16.4142 16.9191ZM23.5858 13.5858L16.9191 20.2525L19.7475 23.0809L26.4142 16.4142L23.5858 13.5858ZM19.7475 20.2525L16.4142 16.9191L13.5858 19.7475L16.9191 23.0809L19.7475 20.2525Z" fill="white"/>
</svg>
