<svg width="40" height="40" viewBox="0 0 40 40" fill="none" xmlns="http://www.w3.org/2000/svg">
<path d="M28.3334 33.3332C28.3334 32.4127 29.0796 31.6665 30 31.6665C30.9205 31.6665 31.6667 32.4127 31.6667 33.3332C31.6667 34.2536 30.9205 34.9998 30 34.9998C29.0796 34.9998 28.3334 34.2536 28.3334 33.3332Z" stroke="white" stroke-width="4" stroke-linecap="round" stroke-linejoin="round"/>
<path d="M11.6666 33.3332C11.6666 32.4127 12.4128 31.6665 13.3333 31.6665C14.2538 31.6665 15 32.4127 15 33.3332C15 34.2536 14.2538 34.9998 13.3333 34.9998C12.4128 34.9998 11.6666 34.2536 11.6666 33.3332Z" stroke="white" stroke-width="4" stroke-linecap="round" stroke-linejoin="round"/>
<path d="M5 5H6.27953C7.0833 5 7.77257 5.57367 7.9185 6.36409L11.6667 26.6667" stroke="white" stroke-width="4" stroke-linecap="round" stroke-linejoin="round"/>
<path d="M9.16663 10H32.9049C33.9767 10 34.7699 10.9971 34.5289 12.0414L31.4519 25.3748C31.2774 26.131 30.604 26.6667 29.828 26.6667H11.6666" stroke="white" stroke-width="4" stroke-linecap="round" stroke-linejoin="round"/>
</svg>
