<svg width="35" height="35" viewBox="0 0 35 35" fill="none" xmlns="http://www.w3.org/2000/svg">
<path d="M10.2083 29.1667C10.2083 26.7505 13.4729 24.7917 17.5 24.7917C21.5271 24.7917 24.7917 26.7505 24.7917 29.1667" stroke="white" stroke-width="2" stroke-linecap="round" stroke-linejoin="round"/>
<path d="M26.25 20.7805C28.8253 21.4556 30.625 22.9974 30.625 24.7915" stroke="white" stroke-width="2" stroke-linecap="round" stroke-linejoin="round"/>
<path d="M8.75 20.7805C6.17472 21.4556 4.375 22.9974 4.375 24.7915" stroke="white" stroke-width="2" stroke-linecap="round" stroke-linejoin="round"/>
<path d="M17.5 20.4167C19.9162 20.4167 21.875 18.458 21.875 16.0417C21.875 13.6255 19.9162 11.6667 17.5 11.6667C15.0838 11.6667 13.125 13.6255 13.125 16.0417C13.125 18.458 15.0838 20.4167 17.5 20.4167Z" stroke="white" stroke-width="2" stroke-linecap="round" stroke-linejoin="round"/>
<path d="M26.25 14.9277C27.145 14.1266 27.7083 12.9625 27.7083 11.6667C27.7083 9.2505 25.7496 7.29175 23.3333 7.29175C22.2128 7.29175 21.1907 7.71299 20.4167 8.40576" stroke="white" stroke-width="2" stroke-linecap="round" stroke-linejoin="round"/>
<path d="M8.74999 14.9277C7.85494 14.1266 7.29166 12.9625 7.29166 11.6667C7.29166 9.2505 9.25041 7.29175 11.6667 7.29175C12.7872 7.29175 13.8093 7.71299 14.5833 8.40576" stroke="white" stroke-width="2" stroke-linecap="round" stroke-linejoin="round"/>
</svg>
